<svg width="27" height="27" viewBox="0 0 27 27" fill="none" xmlns="http://www.w3.org/2000/svg">
<path d="M21.1282 5.59293C20.1057 4.56038 18.8878 3.74167 17.5457 3.18452C16.2035 2.62736 14.7639 2.3429 13.3107 2.34772C7.22176 2.34772 2.25914 7.31034 2.25914 13.3993C2.25914 15.3509 2.77213 17.2467 3.7312 18.9195L2.16992 24.6516L8.0247 23.1127C9.64173 23.9937 11.4595 24.462 13.3107 24.462C19.3997 24.462 24.3623 19.4994 24.3623 13.4105C24.3623 10.4552 23.2137 7.67835 21.1282 5.59293ZM13.3107 22.5885C11.6602 22.5885 10.0432 22.1424 8.6269 21.306L8.29234 21.1053L4.81293 22.0198L5.73855 18.6296L5.51551 18.2839C4.59831 16.8197 4.11139 15.127 4.11036 13.3993C4.11036 8.33631 8.23658 4.21009 13.2996 4.21009C15.753 4.21009 18.0615 5.16916 19.79 6.90886C20.646 7.76072 21.3244 8.77408 21.7858 9.89015C22.2471 11.0062 22.4823 12.2028 22.4776 13.4105C22.4999 18.4734 18.3737 22.5885 13.3107 22.5885ZM18.3514 15.7189C18.0726 15.5851 16.7121 14.916 16.4667 14.8156C16.2102 14.7264 16.0318 14.6818 15.8422 14.9494C15.6526 15.2282 15.1285 15.8527 14.9724 16.0312C14.8162 16.2207 14.649 16.243 14.3702 16.0981C14.0914 15.9642 13.1992 15.6631 12.1509 14.7264C11.3257 13.9904 10.7792 13.087 10.6119 12.8082C10.4558 12.5294 10.5896 12.3845 10.7346 12.2395C10.8573 12.1168 11.0134 11.9161 11.1472 11.76C11.2811 11.6038 11.3368 11.4812 11.426 11.3027C11.5153 11.1132 11.4706 10.957 11.4037 10.8232C11.3368 10.6894 10.7792 9.32884 10.5562 8.77124C10.3331 8.23595 10.099 8.30286 9.93168 8.29171H9.39639C9.2068 8.29171 8.91685 8.35862 8.66036 8.63742C8.41501 8.91622 7.70129 9.58533 7.70129 10.9459C7.70129 12.3064 8.69381 13.6223 8.82764 13.8008C8.96146 13.9904 10.7792 16.7783 13.5449 17.9716C14.2029 18.2616 14.7159 18.4288 15.1173 18.5515C15.7753 18.7634 16.3775 18.7299 16.857 18.663C17.3923 18.585 18.4964 17.9939 18.7194 17.3471C18.9536 16.7003 18.9536 16.1538 18.8755 16.0312C18.7975 15.9085 18.6302 15.8527 18.3514 15.7189Z" fill="#9B9B9B"/>
</svg>
