<svg width="188" height="95" viewBox="0 0 188 95" fill="none" xmlns="http://www.w3.org/2000/svg">
<path d="M162.331 8.99994C162.931 4.49799 163.29 -1.57927e-05 167.831 0C174.832 2.43411e-05 183.332 6.99992 187.331 10.5C190.307 13.1036 180.832 20.9999 180.832 20.9999C180.832 20.9999 172.915 26.9339 167.831 24.9999C161.887 22.7385 161.492 15.3046 162.331 8.99994Z" fill="#C23939"/>
<path d="M19.603 35.8142C22.3948 35.7069 24.8645 35.5726 27.012 35.4116L28.1395 35.331C28.5153 35.2774 28.8911 35.2774 29.2669 35.331C29.6964 35.331 30.0454 35.331 30.3139 35.331H32.1661C32.3809 37.4786 32.4882 38.7134 32.4882 39.0355C32.4882 39.304 32.4346 40.1362 32.3272 41.5321L32.2466 42.4179L32.1661 44.1896C32.1661 44.5654 32.2198 45.1829 32.3272 46.0419H19.7641C19.7641 54.5783 19.7372 59.8129 19.6836 61.7457C20.4889 62.7658 21.9385 63.5174 24.0323 64.0006C26.1262 64.4838 28.3005 64.7254 30.5555 64.7254L32.2466 64.6449V65.3697L32.3272 65.6918V65.6113C32.6493 67.8662 32.8104 69.8795 32.8104 71.6512C32.8104 73.3693 32.5688 74.9262 32.0856 76.3221C30.6897 76.4295 29.2669 76.4832 27.8174 76.4832C22.9317 76.4832 18.6366 75.9195 14.9321 74.792C11.2813 73.6109 8.86535 71.6244 7.6842 68.8326C7.20101 65.9334 6.87888 63.0611 6.71781 60.2156C6.55675 57.3164 6.47622 54.0146 6.47622 50.3101V46.2835C5.77827 46.3372 5.13401 46.364 4.54343 46.364C4.00655 46.3103 3.52335 46.2835 3.09385 46.2835H0.67787L0.919467 35.6532C2.36905 35.7069 4.27499 35.7337 6.63728 35.7337L6.71781 20.352C7.89896 20.2446 8.91904 20.1909 9.77805 20.1909C10.6371 20.1909 11.6571 20.2446 12.8383 20.352L13.402 20.4325C14.6905 20.5399 15.6838 20.5936 16.3817 20.5936C17.4018 20.5936 18.4487 20.513 19.5225 20.352V35.0089L19.603 35.8142ZM54.451 34.2036C54.7194 34.2573 55.6858 34.2841 57.3502 34.2841C57.6723 34.2304 58.3434 34.2036 59.3635 34.2036C60.0077 34.2036 60.4641 34.2304 60.7325 34.2841C62.6116 34.3915 64.3833 34.7673 66.0477 35.4116C67.7657 36.0021 69.1348 36.8075 70.1548 37.8276C71.7118 39.0624 72.7319 40.9952 73.2151 43.6259C73.6983 46.2566 73.9399 49.3169 73.9399 52.8066V55.4642C73.7788 60.0277 73.5104 63.8664 73.1345 66.9804C72.7587 70.0943 72.1145 72.1881 71.2018 73.2619C70.128 74.7652 68.571 75.8121 66.5309 76.4027C64.5444 76.9932 62.209 77.2885 59.5245 77.2885C58.5045 77.2885 57.0817 77.2348 55.2563 77.1275C53.5383 77.0201 52.2229 76.9664 51.3102 76.9664C48.4647 76.4295 45.9682 75.2215 43.8207 73.3424C42.1563 71.7318 41.002 69.7185 40.3578 67.3025C39.7135 64.8328 39.3914 62.0679 39.3914 59.0076L39.3109 49.8269C39.1498 48.3773 39.3109 46.2835 39.7941 43.5454C40.3309 40.8073 40.8678 39.2503 41.4047 38.8745C41.9953 37.3712 43.5254 36.2169 45.9951 35.4116C48.5184 34.6062 51.3371 34.2036 54.451 34.2036ZM52.7598 50.4712C52.7061 51.0081 52.6524 51.7597 52.5987 52.7261C52.545 53.6388 52.5182 54.3367 52.5182 54.8199L52.4377 56.4306C52.4377 57.7728 52.384 59.2492 52.2766 60.8599C52.3303 62.041 52.7866 63.0074 53.6457 63.759C54.5047 64.5107 55.4711 64.8865 56.5448 64.8865C57.6186 64.8865 58.6924 64.6449 59.7661 64.1617C60.0883 64.0006 60.4909 63.1148 60.9741 61.5041L61.0547 61.1015C61.3768 58.4171 61.5379 56.4574 61.5379 55.2226C61.5379 53.9341 61.4305 52.7798 61.2157 51.7597C60.9473 50.3638 60.4104 49.2632 59.6051 48.4579C58.8534 47.6525 57.887 47.2499 56.7059 47.2499C56.4911 47.2499 56.0616 47.3036 55.4174 47.4109C54.0752 47.8404 53.2967 48.431 53.0819 49.1826L52.7598 50.4712ZM116.239 60.1351C115.971 63.7859 115.648 66.7119 115.273 68.9131C114.95 71.1144 114.44 72.6176 113.742 73.423C112.669 74.9262 111.112 75.9732 109.072 76.5637C107.085 77.1543 104.75 77.4496 102.065 77.4496C101.045 77.4496 99.6224 77.3959 97.797 77.2885C96.079 77.1811 94.7636 77.1275 93.8509 77.1275C90.8981 76.5906 88.4016 75.3826 86.3614 73.5035C84.6971 71.8928 83.5428 69.8795 82.8985 67.4635C82.3079 65.0476 82.0126 62.3363 82.0126 59.3298V56.8332C82.0126 53.6656 81.9321 51.4107 81.771 50.0685C81.771 47.8673 81.9321 45.8808 82.2542 44.1091C82.3616 43.0353 82.6837 41.7737 83.2206 40.3241L83.7038 39.2771C83.6501 39.3308 83.6233 39.3308 83.6233 39.2771C84.3749 37.6665 86.0124 36.4585 88.5358 35.6532C91.0591 34.7942 93.8778 34.3647 96.9917 34.3647C97.2601 34.4183 98.2265 34.4452 99.8909 34.4452C100.213 34.3915 100.884 34.3647 101.904 34.3647C102.548 34.3647 103.005 34.3915 103.273 34.4452C107.515 34.821 110.682 35.9753 112.776 37.9081C114.118 38.9819 115.004 40.5388 115.434 42.579C115.917 44.5654 116.212 47.3036 116.32 50.7933V51.6792L116.4 52.8871C114.736 53.2093 113.34 53.3703 112.212 53.3703C110.924 53.3703 108.723 53.1824 105.609 52.8066L103.837 52.565C103.569 51.0081 103.032 49.7732 102.226 48.8605C101.421 47.8941 100.401 47.4109 99.1661 47.4109C98.8439 47.4109 98.4144 47.4646 97.8776 47.572H97.9581C97.2065 47.8404 96.6159 48.2163 96.1864 48.6995C95.7569 49.129 95.4616 49.7732 95.3005 50.6322C95.0858 52.1355 94.9784 54.0951 94.9784 56.5111L94.8979 59.2492C94.8442 59.8398 94.8173 60.5646 94.8173 61.4236C94.8173 62.6584 95.22 63.598 96.0253 64.2422C96.8843 64.8328 97.9312 65.1281 99.1661 65.1281C100.186 65.1281 101.179 64.8597 102.146 64.3228C102.414 64.0006 102.683 63.4101 102.951 62.5511C103.273 61.6384 103.515 60.7257 103.676 59.8129C105.287 60.0277 106.951 60.0814 108.669 59.974H110.441L112.212 59.8935C113.555 59.8935 114.575 59.974 115.273 60.1351H116.239ZM159.677 35.4921C159.677 35.7605 159.704 36.2169 159.757 36.8612C159.865 37.5054 159.918 38.096 159.918 38.6329C159.865 40.0288 159.838 42.1226 159.838 44.9144C159.838 48.6726 159.865 51.4912 159.918 53.3703V58.2023L159.999 63.0343C159.999 66.2019 159.918 69.45 159.757 72.7787V73.584C159.757 74.443 159.65 75.1141 159.435 75.5973C159.221 76.0268 158.657 76.3221 157.744 76.4832H147.516C146.282 76.1074 145.664 75.3826 145.664 74.3088V73.7451C144.322 74.6041 142.846 75.3021 141.235 75.8389C139.624 76.3221 138.067 76.5637 136.564 76.5637C133.719 76.5637 131.303 75.4094 129.316 73.1008C127.383 70.7922 125.934 67.9467 124.967 64.5644C124.001 61.1283 123.518 57.7996 123.518 54.5783C123.518 51.0349 124.162 47.8404 125.451 44.995C126.739 42.0958 128.511 39.814 130.766 38.1497C133.021 36.4853 135.517 35.6263 138.255 35.5726C139.92 35.5726 141.477 35.7069 142.926 35.9753C144.376 36.2437 145.288 36.5659 145.664 36.9417C145.664 36.6733 145.611 36.3243 145.503 35.8948C145.396 35.4653 145.423 35.1431 145.584 34.9284C145.691 34.821 146.067 34.7673 146.711 34.7673C147.678 34.7673 148.939 34.8478 150.496 35.0089C152.107 35.1163 153.127 35.1968 153.556 35.2505L158.63 35.4921H159.677ZM135.839 56.189C135.839 58.5513 136.376 60.5377 137.45 62.1484C138.524 63.7054 139.973 64.4838 141.799 64.4838C142.98 64.4838 143.839 64.1617 144.376 63.5174C144.913 62.8732 145.235 62.0142 145.342 60.9404C145.503 59.8666 145.584 58.256 145.584 56.1085V54.0146C145.584 51.706 145.53 50.149 145.423 49.3437C145.369 48.4847 145.127 47.921 144.698 47.6525C144.322 47.3304 143.624 47.1693 142.604 47.1693C140.886 47.1693 139.49 47.6525 138.416 48.6189C137.343 49.5316 136.645 50.6591 136.322 52.0013C136 53.0751 135.839 54.471 135.839 56.189Z" fill="white"/>
</svg>
