<svg width="56" height="56" viewBox="0 0 56 56" fill="none" xmlns="http://www.w3.org/2000/svg">
<path d="M1.18548 27.6649C1.18418 32.3699 2.41357 36.9641 4.75125 41.0135L0.961914 54.8489L15.1208 51.1364C19.037 53.2683 23.4247 54.3854 27.8836 54.3858H27.8953C42.6148 54.3858 54.5969 42.408 54.6032 27.6859C54.606 20.552 51.8303 13.8437 46.7873 8.79676C41.7451 3.75025 35.0392 0.969564 27.8942 0.966309C13.173 0.966309 1.19177 12.9434 1.1857 27.6649" fill="url(#paint0_linear_194_34)"/>
<path d="M0.232248 27.6562C0.230729 32.5306 1.50419 37.2891 3.92521 41.4834L0 55.8149L14.6666 51.9693C18.7077 54.1726 23.2576 55.3343 27.8873 55.336H27.8993C43.1469 55.336 55.5594 42.9275 55.5659 27.6783C55.5685 20.2881 52.693 13.3386 47.4698 8.11088C42.2459 2.88378 35.3002 0.00303876 27.8993 0C12.6491 0 0.238326 12.4068 0.232248 27.6562ZM8.96673 40.7611L8.4191 39.8918C6.11702 36.2313 4.90195 32.0014 4.90369 27.6579C4.90846 14.983 15.2238 4.67101 27.908 4.67101C34.0506 4.67361 39.8234 7.06816 44.1653 11.4127C48.5071 15.7577 50.8962 21.5335 50.8947 27.6766C50.889 40.3515 40.5735 50.6648 27.8993 50.6648H27.8902C23.7633 50.6626 19.7159 49.5544 16.1862 47.46L15.3462 46.9619L6.64273 49.2438L8.96673 40.7611Z" fill="url(#paint1_linear_194_34)"/>
<path d="M20.9841 16.0941C20.4662 14.943 19.9212 14.9198 19.4287 14.8996C19.0254 14.8823 18.5644 14.8836 18.1038 14.8836C17.6427 14.8836 16.8937 15.057 16.2605 15.7483C15.6267 16.4403 13.8408 18.1125 13.8408 21.5135C13.8408 24.9145 16.3181 28.2016 16.6634 28.6633C17.0092 29.1241 21.4457 36.3268 28.4722 39.0977C34.3119 41.4004 35.5002 40.9424 36.7676 40.827C38.0352 40.7119 40.8578 39.1552 41.4336 37.541C42.0099 35.927 42.0099 34.5435 41.8371 34.2544C41.6644 33.9663 41.2033 33.7933 40.512 33.4478C39.8207 33.1022 36.4218 31.4296 35.7883 31.1989C35.1545 30.9684 34.6937 30.8533 34.2326 31.5455C33.7716 32.2366 32.4478 33.7933 32.0443 34.2544C31.6412 34.7165 31.2377 34.774 30.5466 34.4282C29.8549 34.0814 27.6285 33.3523 24.9872 30.9975C22.9321 29.1651 21.5447 26.9023 21.1414 26.2101C20.7382 25.519 21.0982 25.1444 21.4449 24.7999C21.7555 24.4902 22.1364 23.9927 22.4824 23.5892C22.8271 23.1855 22.9421 22.8974 23.1726 22.4364C23.4034 21.9749 23.2879 21.5712 23.1153 21.2255C22.9421 20.8797 21.5988 17.4609 20.9841 16.0941Z" fill="white"/>
<defs>
<linearGradient id="paint0_linear_194_34" x1="2683.03" y1="5389.23" x2="2683.03" y2="0.966309" gradientUnits="userSpaceOnUse">
<stop stop-color="#1FAF38"/>
<stop offset="1" stop-color="#60D669"/>
</linearGradient>
<linearGradient id="paint1_linear_194_34" x1="2778.29" y1="5581.49" x2="2778.29" y2="0" gradientUnits="userSpaceOnUse">
<stop stop-color="#F9F9F9"/>
<stop offset="1" stop-color="white"/>
</linearGradient>
</defs>
</svg>
