<svg width="24" height="24" viewBox="0 0 24 24" fill="none" xmlns="http://www.w3.org/2000/svg">
<path d="M12.001 8.93771C11.1888 8.93771 10.4099 9.26034 9.83564 9.83462C9.26136 10.4089 8.93873 11.1878 8.93873 11.9999C8.93873 12.8121 9.26136 13.591 9.83564 14.1653C10.4099 14.7396 11.1888 15.0622 12.001 15.0622C12.8131 15.0622 13.592 14.7396 14.1663 14.1653C14.7406 13.591 15.0632 12.8121 15.0632 11.9999C15.0632 11.1878 14.7406 10.4089 14.1663 9.83462C13.592 9.26034 12.8131 8.93771 12.001 8.93771ZM12.001 6.89622C13.3546 6.89622 14.6527 7.43393 15.6099 8.39106C16.567 9.3482 17.1047 10.6464 17.1047 11.9999C17.1047 13.3535 16.567 14.6517 15.6099 15.6088C14.6527 16.566 13.3546 17.1037 12.001 17.1037C10.6474 17.1037 9.34922 16.566 8.39209 15.6088C7.43495 14.6517 6.89724 13.3535 6.89724 11.9999C6.89724 10.6464 7.43495 9.3482 8.39209 8.39106C9.34922 7.43393 10.6474 6.89622 12.001 6.89622ZM18.6358 6.64103C18.6358 6.97943 18.5014 7.30397 18.2621 7.54325C18.0228 7.78253 17.6983 7.91696 17.3599 7.91696C17.0215 7.91696 16.697 7.78253 16.4577 7.54325C16.2184 7.30397 16.084 6.97943 16.084 6.64103C16.084 6.30263 16.2184 5.97809 16.4577 5.73881C16.697 5.49952 17.0215 5.36509 17.3599 5.36509C17.6983 5.36509 18.0228 5.49952 18.2621 5.73881C18.5014 5.97809 18.6358 6.30263 18.6358 6.64103ZM12.001 3.83397C9.47564 3.83397 9.06326 3.84112 7.88838 3.89318C7.08812 3.93095 6.5512 4.03812 6.05308 4.23207C5.63644 4.38556 5.25967 4.63081 4.95067 4.94965C4.63146 5.25855 4.38585 5.63533 4.23207 6.05206C4.03812 6.55222 3.93095 7.08812 3.8942 7.88736C3.84112 9.01427 3.83397 9.40827 3.83397 11.9999C3.83397 14.5263 3.84112 14.9377 3.89318 16.1125C3.93095 16.9118 4.03812 17.4497 4.23104 17.9468C4.40457 18.3908 4.60872 18.7103 4.94761 19.0492C5.2916 19.3922 5.61109 19.5974 6.05002 19.7668C6.55426 19.9618 7.09118 20.07 7.88736 20.1067C9.01427 20.1598 9.40827 20.1659 11.9999 20.1659C14.5263 20.1659 14.9377 20.1588 16.1125 20.1067C16.9108 20.069 17.4477 19.9618 17.9468 19.7689C18.3635 19.6154 18.7402 19.3701 19.0492 19.0513C19.3932 18.7083 19.5984 18.3888 19.7678 17.9489C19.9618 17.4467 20.07 16.9097 20.1067 16.1115C20.1598 14.9856 20.1659 14.5906 20.1659 11.9999C20.1659 9.47462 20.1588 9.06224 20.1067 7.88736C20.069 7.08914 19.9608 6.55018 19.7678 6.05206C19.6143 5.63542 19.3691 5.25865 19.0502 4.94965C18.7414 4.63044 18.3646 4.38483 17.9478 4.23104C17.4477 4.0371 16.9108 3.92992 16.1125 3.89318C14.9867 3.8401 14.5926 3.83397 11.9999 3.83397M11.9999 1.79248C14.7733 1.79248 15.1194 1.80269 16.2085 1.85373C17.2946 1.90476 18.0356 2.07523 18.6858 2.32837C19.3595 2.58764 19.9271 2.93878 20.4946 3.50529C21.0139 4.01539 21.4155 4.63268 21.6715 5.31406C21.9237 5.96427 22.0951 6.70534 22.1462 7.79243C22.1942 8.88055 22.2074 9.22658 22.2074 11.9999C22.2074 14.7733 22.1972 15.1194 22.1462 16.2075C22.0951 17.2956 21.9237 18.0346 21.6715 18.6858C21.4155 19.3672 21.0139 19.9845 20.4946 20.4946C19.9845 21.0139 19.3672 21.4155 18.6858 21.6715C18.0356 21.9237 17.2946 22.0951 16.2085 22.1462C15.1194 22.1942 14.7733 22.2074 11.9999 22.2074C9.22658 22.2074 8.88055 22.1972 7.79141 22.1462C6.70534 22.0951 5.96529 21.9237 5.31406 21.6715C4.63268 21.4155 4.01539 21.0139 3.50529 20.4946C2.98605 19.9845 2.58439 19.3672 2.32837 18.6858C2.07523 18.0356 1.90476 17.2946 1.85373 16.2075C1.80473 15.1194 1.79248 14.7733 1.79248 11.9999C1.79248 9.22658 1.80269 8.88055 1.85373 7.79243C1.90476 6.70431 2.07523 5.96529 2.32837 5.31406C2.58439 4.63268 2.98605 4.01539 3.50529 3.50529C4.01539 2.98605 4.63268 2.58439 5.31406 2.32837C5.96427 2.07523 6.70431 1.90476 7.79141 1.85373C8.88157 1.80575 9.2276 1.79248 12.001 1.79248" fill="#8A8A8A"/>
</svg>
