<svg width="53" height="53" viewBox="0 0 53 53" fill="none" xmlns="http://www.w3.org/2000/svg">
<path d="M40.5781 0H12.4219C5.56146 0 0 5.56146 0 12.4219V40.5781C0 47.4385 5.56146 53 12.4219 53H40.5781C47.4385 53 53 47.4385 53 40.5781V12.4219C53 5.56146 47.4385 0 40.5781 0Z" fill="url(#paint0_radial_194_40)"/>
<path d="M40.5781 0H12.4219C5.56146 0 0 5.56146 0 12.4219V40.5781C0 47.4385 5.56146 53 12.4219 53H40.5781C47.4385 53 53 47.4385 53 40.5781V12.4219C53 5.56146 47.4385 0 40.5781 0Z" fill="url(#paint1_radial_194_40)"/>
<path d="M26.5019 5.79688C20.8793 5.79688 20.1735 5.82151 17.9653 5.92192C15.7613 6.02295 14.2568 6.3718 12.9405 6.88379C11.5786 7.41255 10.4236 8.11997 9.27293 9.27107C8.12121 10.422 7.41379 11.577 6.88338 12.9382C6.36994 14.2549 6.02068 15.76 5.92151 17.9631C5.82275 20.1715 5.79688 20.8774 5.79688 26.5002C5.79688 32.123 5.82172 32.8265 5.92192 35.0347C6.02337 37.2387 6.37221 38.7432 6.88379 40.0595C7.41296 41.4214 8.12039 42.5764 9.27148 43.7271C10.422 44.8788 11.577 45.5879 12.9378 46.1166C14.2551 46.6286 15.7598 46.9775 17.9635 47.0785C20.1719 47.1789 20.877 47.2035 26.4994 47.2035C32.1226 47.2035 32.826 47.1789 35.0342 47.0785C37.2383 46.9775 38.7444 46.6286 40.0618 46.1166C41.423 45.5879 42.5764 44.8788 43.7267 43.7271C44.8784 42.5764 45.5856 41.4214 46.1162 40.0601C46.6251 38.7432 46.9746 37.2383 47.0781 35.0351C47.1772 32.8269 47.2031 32.123 47.2031 26.5002C47.2031 20.8774 47.1772 20.1719 47.0781 17.9635C46.9746 15.7594 46.6251 14.2551 46.1162 12.9388C45.5856 11.577 44.8784 10.422 43.7267 9.27107C42.5751 8.11956 41.4234 7.41213 40.0605 6.884C38.7407 6.3718 37.2354 6.02275 35.0313 5.92192C32.8229 5.82151 32.1199 5.79688 26.4954 5.79688H26.5019ZM24.6446 9.52779C25.1959 9.52696 25.811 9.52779 26.5019 9.52779C32.0298 9.52779 32.6849 9.54766 34.8678 9.64683C36.8863 9.73916 37.982 10.0764 38.7117 10.3598C39.678 10.735 40.3667 11.1836 41.0909 11.9084C41.8156 12.633 42.264 13.3231 42.6402 14.2893C42.9236 15.018 43.2613 16.1137 43.3532 18.1322C43.4523 20.3147 43.4739 20.9702 43.4739 26.4954C43.4739 32.0207 43.4523 32.6764 43.3532 34.8587C43.2608 36.8772 42.9236 37.9728 42.6402 38.7018C42.265 39.668 41.8156 40.356 41.0909 41.0802C40.3663 41.8048 39.6784 42.2532 38.7117 42.6286C37.9828 42.9132 36.8863 43.2497 34.8678 43.342C32.6853 43.4412 32.0298 43.4627 26.5019 43.4627C20.9737 43.4627 20.3185 43.4412 18.1361 43.342C16.1176 43.2488 15.022 42.9116 14.2916 42.6281C13.3256 42.2528 12.6353 41.8044 11.9107 41.0798C11.1861 40.3552 10.7377 39.6668 10.3615 38.7001C10.0781 37.9712 9.74041 36.8756 9.64848 34.857C9.54932 32.6745 9.52944 32.019 9.52944 26.4903C9.52944 20.9615 9.54932 20.3096 9.64848 18.127C9.74082 16.1085 10.0781 15.0129 10.3615 14.2831C10.7368 13.3169 11.1861 12.6268 11.9109 11.9022C12.6357 11.1776 13.3256 10.729 14.2918 10.353C15.0216 10.0683 16.1176 9.73192 18.1361 9.63917C20.046 9.55284 20.7861 9.52696 24.6446 9.52261V9.52779ZM37.5532 12.9653C36.1816 12.9653 35.0688 14.0771 35.0688 15.4489C35.0688 16.8205 36.1816 17.9333 37.5532 17.9333C38.9248 17.9333 40.0376 16.8205 40.0376 15.4489C40.0376 14.0773 38.9248 12.9645 37.5532 12.9645V12.9653ZM26.5019 15.8681C20.6305 15.8681 15.87 20.6286 15.87 26.5002C15.87 32.3718 20.6305 37.13 26.5019 37.13C32.3735 37.13 37.1323 32.3718 37.1323 26.5002C37.1323 20.6288 32.3731 15.8681 26.5015 15.8681H26.5019ZM26.5019 19.599C30.3131 19.599 33.403 22.6886 33.403 26.5002C33.403 30.3114 30.3131 33.4014 26.5019 33.4014C22.6906 33.4014 19.6009 30.3114 19.6009 26.5002C19.6009 22.6886 22.6904 19.599 26.5019 19.599Z" fill="white"/>
<defs>
<radialGradient id="paint0_radial_194_40" cx="0" cy="0" r="1" gradientUnits="userSpaceOnUse" gradientTransform="translate(14.0781 57.082) rotate(-90) scale(52.5269 48.8542)">
<stop stop-color="#FFDD55"/>
<stop offset="0.1" stop-color="#FFDD55"/>
<stop offset="0.5" stop-color="#FF543E"/>
<stop offset="1" stop-color="#C837AB"/>
</radialGradient>
<radialGradient id="paint1_radial_194_40" cx="0" cy="0" r="1" gradientUnits="userSpaceOnUse" gradientTransform="translate(-8.87771 3.81786) rotate(78.681) scale(23.4798 96.7846)">
<stop stop-color="#3771C8"/>
<stop offset="0.128" stop-color="#3771C8"/>
<stop offset="1" stop-color="#6600FF" stop-opacity="0"/>
</radialGradient>
</defs>
</svg>
